<svg xmlns="http://www.w3.org/2000/svg" xmlns:xlink="http://www.w3.org/1999/xlink" version="1.1" width="1000" height="1000" viewBox="0 0 1000 1000" xml:space="preserve">
<desc>Created with Fabric.js 3.5.0</desc>
<defs>
</defs>
<rect x="0" y="0" width="100%" height="100%" fill="rgba(255,255,255,0)"/>
<g transform="matrix(1.0927 0 0 1.0927 500.0177 500.0177)" id="166814">
<path style="stroke: none; stroke-width: 1; stroke-dasharray: none; stroke-linecap: butt; stroke-dashoffset: 0; stroke-linejoin: miter; stroke-miterlimit: 4; is-custom-font: none; font-file-url: none; fill: rgb(0,0,0); fill-rule: nonzero; opacity: 1;" vector-effect="non-scaling-stroke" transform=" translate(-512, -512)" d="M 512 359.18 C 512 359.18 512 359.18 512 359.18 C 596.4 359.18 664.81 427.6 664.82 512 C 664.82 512 664.82 512 664.82 512 C 664.82 596.4 596.4 664.81 512 664.82 C 512 664.82 512 664.82 512 664.82 C 427.6 664.82 359.19 596.4 359.18 512 C 359.18 512 359.18 512 359.18 512 C 359.18 427.6 427.6 359.18 512 359.18 C 512 359.18 512 359.18 512 359.18 C 512 359.18 512 359.18 512 359.18 Z M 512 410.12 C 455.73 410.12 410.12 455.73 410.12 512 C 410.12 568.27 455.73 613.88 512 613.88 C 568.27 613.88 613.88 568.27 613.88 512 C 613.88 455.73 568.27 410.12 512 410.12 C 512 410.12 512 410.12 512 410.12 Z M 806.16 217.84 C 884.17 295.86 928 401.67 928 512 C 928 622.33 884.17 728.14 806.16 806.16 C 728.14 884.17 622.33 928 512 928 C 401.67 928 295.86 884.17 217.84 806.16 C 139.83 728.14 96 622.33 96 512 C 96 401.67 139.83 295.86 217.84 217.84 C 295.86 139.83 401.67 96 512 96 C 622.33 96 728.14 139.83 806.16 217.84 Z M 332.02 512 C 332.02 512 138.45 512 138.45 512 C 138.45 611.07 177.81 706.09 247.86 776.14 C 317.91 846.19 412.93 885.55 512 885.55 C 611.07 885.55 706.09 846.19 776.14 776.14 C 846.19 706.09 885.55 611.07 885.55 512 C 885.55 512 885.55 512 885.55 512 C 885.55 512 691.98 512 691.98 512 C 691.98 412.6 611.4 332.02 512 332.02 C 412.6 332.02 332.02 412.6 332.02 512 Z" stroke-linecap="round"/>
</g>
<g transform="matrix(2.9844 0 0 2.9844 499.9995 499.9995)" id="697060">
<path style="stroke: none; stroke-width: 1; stroke-dasharray: none; stroke-linecap: butt; stroke-dashoffset: 0; stroke-linejoin: miter; stroke-miterlimit: 4; is-custom-font: none; font-file-url: none; fill: rgb(0,0,0); fill-rule: nonzero; opacity: 1;" vector-effect="non-scaling-stroke" transform=" translate(-67.5, -67.5)" d="M 67.5 135 C 104.779 135 135 104.779 135 67.5 C 135 30.2208 104.779 0 67.5 0 C 30.2208 0 0 30.2208 0 67.5 C 0 104.779 30.2208 135 67.5 135 Z" stroke-linecap="round"/>
</g>
</svg>